<?xml version="1.0" encoding="UTF-8"?>
<svg id="Calque_1" xmlns="http://www.w3.org/2000/svg" baseProfile="tiny" version="1.2" viewBox="0 0 120 77">
  <!-- Generator: Adobe Illustrator 29.0.1, SVG Export Plug-In . SVG Version: 2.1.0 Build 192)  -->
  <rect width="120" height="77" fill="#b90845"/>
  <g>
    <path d="M12.6235,59.2119v-5.4551c1.0557-4.8095,5.8067-9.2089,11.3203-14.0185,2.7569-2.4043,5.7481-5.396,5.7481-9.3848,0-3.5776-2.3462-6.5693-6.8628-6.5693-3.6362,0-6.1587,2.6396-7.1558,3.7539l-4.3403-5.7481c3.9883-3.4604,7.6836-5.103,13.2559-5.103,7.2734,0,14.1357,4.2232,14.1357,12.6694,0,7.0977-4.5161,10.4405-9.5019,14.9571-2.1114,1.9355-6.2759,5.5722-6.8038,7.9775h17.0684v6.9209H12.6235Z" fill="#fff"/>
    <path d="M68.7539,50.5898v8.6221h-8.2119v-8.6221h-18.6524v-7.6836l16.0713-25.1044h10.793v26.3359h4.8672v6.4521h-4.8672ZM60.542,25.0747h-.1177c-.1758.7041-1.3491,3.2261-2.9912,5.8071l-8.4463,13.2559h11.5552v-19.063Z" fill="#fff"/>
    <path d="M92.0127,60.3262c-12.4932,0-14.957-12.3174-14.957-21.878,0-9.561,2.6982-21.8784,15.1914-21.8784,12.4930974,0,14.9569973,12.3174,14.9569973,21.8784,0,9.5606-2.6981999,21.878-15.1913973,21.878ZM92.1299,23.5498c-5.9834,0-6.1592,10.6753-6.1592,14.8984,0,4.1641.2939,14.9571,6.1592,14.9571,5.8662,0,6.1006-10.8516,6.1006-14.9571,0-4.3408-.1758-14.8984-6.1006-14.8984Z" fill="#fff"/>
  </g>
</svg>