<?xml version="1.0" encoding="utf-8"?>
<!-- Generator: Adobe Illustrator 23.0.3, SVG Export Plug-In . SVG Version: 6.00 Build 0)  -->
<svg version="1.2" baseProfile="tiny" id="Calque_1"
	 xmlns="http://www.w3.org/2000/svg" xmlns:xlink="http://www.w3.org/1999/xlink" x="0px" y="0px" viewBox="0 0 120 77"
	 xml:space="preserve">
<g>
	<rect fill-rule="evenodd" fill="#FF1400" width="120" height="77"/>
</g>
<g>
	<path fill="#FFFFFF" d="M39.57,50.82v8.83h-8.41v-8.83H12.04v-7.87l16.47-25.72h11.06v26.99h4.99v6.61H39.57z M31.15,24.68h-0.12
		c-0.18,0.72-1.38,3.31-3.07,5.95l-8.66,13.58h11.84V24.68z"/>
	<path fill="#FFFFFF" d="M58.04,60.68c-4.93,0-8.71-1.08-11.96-3.07L49.5,51c2.34,1.62,4.75,2.71,8.05,2.71
		c3.31,0,7.45-1.98,7.45-6.97c0-3.06-2.04-7.27-9.86-7.39c-2.4,0-5.23-0.06-6.61-0.06l1.68-22.06h22.3v7.09H57.25l-0.6,8.05
		c0.24,0,0.78,0.06,1.2,0.06c11.6,0.54,16.29,7.09,16.29,13.46C74.14,54.01,67.71,60.68,58.04,60.68z"/>
	<path fill="#FFFFFF" d="M86.21,60.8c-2.4,0-4.57-0.3-6.37-0.72l1.32-7.21c1.14,0.48,3.37,1.02,5.83,1.02
		c5.95,0,10.28-4.75,10.88-13.28c-1.44,1.26-4.21,2.88-8.78,2.88c-7.03,0-12.68-4.63-12.68-12.56c0-8.48,5.65-14.73,14.54-14.73
		c11.6,0,15.75,8.05,15.75,19.29C106.7,50.22,99.79,60.8,86.21,60.8z M91.32,22.87c-4.21,0-6.37,3.43-6.37,7.09
		c0,3.97,2.64,6.85,6.85,6.85c2.71,0,4.87-1.02,5.71-2.34c0.48-0.72,0.48-2.4,0.48-3.67C97.99,26.78,95.64,22.87,91.32,22.87z"/>
</g>
</svg>
