<?xml version="1.0" encoding="utf-8"?>
<!-- Generator: Adobe Illustrator 23.0.3, SVG Export Plug-In . SVG Version: 6.00 Build 0)  -->
<svg version="1.2" baseProfile="tiny" id="Calque_1"
	 xmlns="http://www.w3.org/2000/svg" xmlns:xlink="http://www.w3.org/1999/xlink" x="0px" y="0px" viewBox="0 0 120 77"
	 xml:space="preserve">
<g>
	<rect fill-rule="evenodd" fill="#0055C8" width="120" height="77"/>
</g>
<g>
	<path fill="#FFFFFF" d="M43.88,50.88v8.83h-8.41v-8.83H16.36v-7.87l16.47-25.72h11.06v26.99h4.99v6.61H43.88z M35.47,24.74h-0.12
		c-0.18,0.72-1.38,3.31-3.07,5.95l-8.66,13.58h11.84V24.74z"/>
	<path fill="#FFFFFF" d="M63.77,59.72h-9.68c0-5.59,1.5-9.2,5.23-16.11l10.34-19.23H49.05v-7.09h29.69v6.91
		C69.42,40.36,63.77,53.04,63.77,59.72z"/>
	<path fill="#FFFFFF" d="M94.63,59.72V26.36c-2.58,2.04-6.67,4.03-9.5,5.29l-2.88-6.49c4.45-1.86,9.8-4.69,14-7.87h7.39v42.43H94.63
		z"/>
</g>
</svg>
