<?xml version="1.0" encoding="utf-8"?>
<!-- Generator: Adobe Illustrator 21.0.2, SVG Export Plug-In . SVG Version: 6.00 Build 0)  -->
<svg version="1.2" baseProfile="tiny" xmlns="http://www.w3.org/2000/svg" xmlns:xlink="http://www.w3.org/1999/xlink" x="0px"
	 y="0px" viewBox="0 0 120 77" overflow="scroll" xml:space="preserve">
<g id="Calque_1">
	<g>
		<rect fill-rule="evenodd" fill="#6E491E" width="120" height="77"/>
	</g>
</g>
<g id="Premier_plan">
	<g>
		<path fill="#FFFFFF" d="M38.7128868,50.9760895v8.6132813h-8.203125v-8.6132813H11.8769503v-7.6757813l16.0546875-25.0781269
			h10.78125V44.530777h4.8632813v6.4453125H38.7128868z M30.5097618,25.4878063h-0.1171875
			c-0.1757813,0.703125-1.3476563,3.2226563-2.9882813,5.8007813l-8.4375,13.2421894h11.5429688V25.4878063z"/>
		<path fill="#FFFFFF" d="M47.036129,59.5893707V54.140152c1.0546875-4.8046875,5.8007813-9.1992188,11.3085938-14.0039063
			c2.7539063-2.4023438,5.7421913-5.390625,5.7421913-9.3750019c0-3.5742188-2.3437538-6.5625-6.8554726-6.5625
			c-3.6328125,0-6.1523438,2.6367188-7.1484375,3.75l-4.3359375-5.7421875
			c3.984375-3.4570313,7.6757813-5.0976563,13.2421875-5.0976563c7.2656288,0,14.1210976,4.21875,14.1210976,12.65625
			c0,7.0898457-4.5117188,10.4296894-9.4921913,14.9414082c-2.109375,1.9335938-6.2695313,5.5664063-6.796875,7.96875h17.0507851
			v6.9140625H47.036129z"/>
		<path fill="#FFFFFF" d="M92.7412109,60.5854645c-11.3085938,0-15.3515625-7.8515625-15.3515625-18.8085938
			c0-14.3554707,6.7382813-24.6679707,19.9804688-24.6679707c2.34375,0,4.453125,0.2929688,6.2109375,0.703125l-1.2890625,7.03125
			c-1.1132813-0.46875-3.28125-0.9960938-5.6835938-0.9960938c-5.8007813,0-10.0195313,4.6289063-10.6054688,12.9492207
			c1.40625-1.2304688,4.1015625-2.8125,8.5546875-2.8125c6.8554688,0,12.3632813,4.5117188,12.3632813,12.2460938
			C106.9208984,54.4917145,101.4130859,60.5854645,92.7412109,60.5854645z M91.9208984,40.4878082
			c-2.6367188,0-4.7460938,0.9960938-5.5664063,2.2851563c-0.46875,0.703125-0.46875,2.34375-0.46875,3.5742188
			c0,3.9257813,2.2851563,7.734375,6.5039063,7.734375c4.1015625,0,6.2109375-3.3398438,6.2109375-6.9140625
			C98.6005859,43.3003082,96.0224609,40.4878082,91.9208984,40.4878082z"/>
	</g>
	<g>
	</g>
</g>
</svg>
