<?xml version="1.0" encoding="utf-8"?>
<!-- Generator: Adobe Illustrator 21.0.2, SVG Export Plug-In . SVG Version: 6.00 Build 0)  -->
<svg version="1.2" baseProfile="tiny" id="Calque_1"
	 xmlns="http://www.w3.org/2000/svg" xmlns:xlink="http://www.w3.org/1999/xlink" x="0px" y="0px" viewBox="0 0 120 77"
	 overflow="scroll" xml:space="preserve">
<rect fill-rule="evenodd" fill="#6E6E00" width="120" height="77"/>
<g>
	<path fill="#FFFFFF" d="M39.8950005,50.5898018v8.622097h-8.211401v-8.622097H13.0312996v-7.6836014l16.0712013-25.1044006
		h10.7924995v26.3358994h4.8681984v6.4521027H39.8950005z M31.6835995,25.0746994h-0.1176987
		c-0.1758003,0.7040997-1.3491001,3.2261009-2.9912014,5.8071003l-8.4462986,13.2558994h11.5551987V25.0746994z"/>
	<path fill="#FFFFFF" d="M63.6641006,60.2089996c-11.3199005,0-15.3671989-7.8593979-15.3671989-18.8280983
		c0-14.3706017,6.7450981-24.6939011,20.0018959-24.6939011c2.3457031,0,4.4570999,0.293499,6.2168045,0.7040997
		l-1.2910004,7.0386009C72.1112976,23.9603996,69.9403992,23.4326,67.535202,23.4326
		c-5.8067017,0-10.0293007,4.6338005-10.6163025,12.9624004c1.4077988-1.2313995,4.1064987-2.8153992,8.5634995-2.8153992
		c6.8633041,0,12.3769989,4.5170975,12.3769989,12.2593002C77.8593979,54.1094017,72.3457031,60.2089996,63.6641006,60.2089996z
		 M62.8437996,40.0908012c-2.6401978,0-4.7514992,0.997097-5.5727997,2.2870979
		c-0.4692001,0.7041016-0.4692001,2.3467026-0.4692001,3.5782013c0,3.9295998,2.2876015,7.7420998,6.5107002,7.7420998
		c4.1054993,0,6.2167969-3.342701,6.2167969-6.9208984C69.5292969,42.9062004,66.9492035,40.0908012,62.8437996,40.0908012z"/>
	<path fill="#FFFFFF" d="M93.0702972,59.2118988h-9.4432983c0-5.4550972,1.4668045-8.9745979,5.1035004-15.7196999
		l10.0887985-18.7694988H78.7012024v-6.9209003h28.9745941v6.7451
		C98.5839996,40.3251991,93.0702972,52.7011986,93.0702972,59.2118988z"/>
</g>
<g>
</g>
</svg>
